<svg xmlns="http://www.w3.org/2000/svg" viewBox="0 0 64 64" role="img" aria-label="Python inspired mark">
  <defs><linearGradient id="a" x1="0" x2="1" y1="0" y2="1"><stop stop-color="#4b8bbe"/><stop offset="1" stop-color="#306998"/></linearGradient><linearGradient id="b" x1="1" x2="0" y1="0" y2="1"><stop stop-color="#ffe873"/><stop offset="1" stop-color="#ffd43b"/></linearGradient></defs>
  <path fill="url(#a)" d="M31 4C17 4 18 10 18 10v8h14v3H12S4 20 4 32s7 12 7 12h7v-9s0-7 7-7h14s7 0 7-7V11s1-7-15-7Zm-7 7a2.5 2.5 0 1 1 0 5 2.5 2.5 0 0 1 0-5Z"/>
  <path fill="url(#b)" d="M33 60c14 0 13-6 13-6v-8H32v-3h20s8 1 8-11-7-12-7-12h-7v9s0 7-7 7H25s-7 0-7 7v10s-1 7 15 7Zm7-7a2.5 2.5 0 1 1 0-5 2.5 2.5 0 0 1 0 5Z"/>
</svg>
